%FSLAX25Y25*%
%MOIN*%
G70*
G01*
G75*
G04 Layer_Color=65535*
%ADD10C,0.00800*%
%ADD11C,0.01000*%
%ADD12R,0.05906X0.01181*%
%ADD13R,0.11811X0.15748*%
%ADD14R,0.02756X0.04921*%
%ADD15R,0.04567X0.05787*%
%ADD16R,0.03858X0.03661*%
%ADD17R,0.03661X0.03858*%
%ADD18R,0.11811X0.05906*%
%ADD19R,0.11811X0.08268*%
%ADD20R,0.06299X0.00787*%
%ADD21C,0.01600*%
%ADD22C,0.06000*%
%ADD23C,0.04000*%
%ADD24C,0.02400*%
%ADD25C,0.01200*%
%ADD26R,0.13106X0.17374*%
%ADD27C,0.05906*%
%ADD28C,0.06000*%
%ADD29R,0.06000X0.06000*%
%ADD30C,0.07000*%
%ADD31C,0.01800*%
%ADD32C,0.00787*%
%ADD33C,0.00600*%
%ADD34C,0.00500*%
D11*
X250252Y272441D02*
X252850D01*
X250252D02*
X252850D01*
X250252D02*
X252850D01*
X250252D02*
Y275650D01*
X261748Y272441D02*
Y275650D01*
X259150Y272441D02*
X261748D01*
X266350Y148159D02*
X268948D01*
X266350D02*
X268948D01*
X266350D02*
X268948D01*
Y144950D02*
Y148159D01*
X257452Y144950D02*
Y148159D01*
X260050D01*
X270126Y168000D02*
Y220248D01*
X255500Y158972D02*
X256209D01*
X255559Y229894D02*
X256209D01*
X255500Y158972D02*
Y167933D01*
X255559Y220933D02*
Y229894D01*
X196158Y290000D02*
X225685D01*
X196158Y263252D02*
X225685D01*
Y290000D01*
X196158Y263252D02*
Y290000D01*
D32*
X227800Y156100D02*
G03*
X225300Y156100I-1250J0D01*
G01*
X195990Y165131D02*
G03*
X197565Y163557I1575J0D01*
G01*
X200635D02*
G03*
X202210Y165131I0J1575D01*
G01*
X202210Y174068D02*
G03*
X200635Y175643I-1575J-0D01*
G01*
X197565Y175643D02*
G03*
X195990Y174068I0J-1575D01*
G01*
X212931Y151610D02*
G03*
X211357Y150035I0J-1575D01*
G01*
Y146965D02*
G03*
X212931Y145390I1575J0D01*
G01*
X221868Y145390D02*
G03*
X223443Y146965I-0J1575D01*
G01*
X223443Y150035D02*
G03*
X221868Y151610I-1575J0D01*
G01*
X233800Y156100D02*
Y176100D01*
X218300D02*
X233800D01*
X218300Y156100D02*
Y176100D01*
X227800Y156100D02*
X233800D01*
X218300D02*
X225300D01*
X254819Y278543D02*
X257181D01*
X262019Y142057D02*
X264381D01*
X242168Y135125D02*
Y143275D01*
X228232Y135125D02*
Y143275D01*
Y135125D02*
X233428D01*
X236972D02*
X242168D01*
X236972Y143275D02*
X242168D01*
X228232D02*
X233428D01*
X242168Y144125D02*
Y152275D01*
X228232Y144125D02*
Y152275D01*
Y144125D02*
X233428D01*
X236972D02*
X242168D01*
X236972Y152275D02*
X242168D01*
X228232D02*
X233428D01*
X226710Y221575D02*
Y226043D01*
X220490Y213957D02*
X226710D01*
X220490Y226043D02*
X226710D01*
Y213957D02*
Y218425D01*
X220490Y221575D02*
Y226043D01*
Y213957D02*
Y218425D01*
X219710Y221575D02*
Y226043D01*
X213490Y213957D02*
X219710D01*
X213490Y226043D02*
X219710D01*
Y213957D02*
Y218425D01*
X213490Y221575D02*
Y226043D01*
Y213957D02*
Y218425D01*
X219810Y195575D02*
Y200043D01*
X213590Y187957D02*
X219810D01*
X213590Y200043D02*
X219810D01*
Y187957D02*
Y192425D01*
X213590Y195575D02*
Y200043D01*
Y187957D02*
Y192425D01*
X220590Y187957D02*
Y192425D01*
Y200043D02*
X226810D01*
X220590Y187957D02*
X226810D01*
X220590Y195575D02*
Y200043D01*
X226810Y187957D02*
Y192425D01*
Y195575D02*
Y200043D01*
X257157Y136710D02*
X261625D01*
X269243Y130490D02*
Y136710D01*
X257157Y130490D02*
Y136710D01*
X264775D02*
X269243D01*
X257157Y130490D02*
X261625D01*
X264775D02*
X269243D01*
X257575Y283890D02*
X262043D01*
X249957D02*
Y290110D01*
X262043Y283890D02*
Y290110D01*
X249957Y283890D02*
X254425D01*
X257575Y290110D02*
X262043D01*
X249957D02*
X254425D01*
X202210Y165131D02*
Y168025D01*
X202210Y171175D02*
Y174068D01*
X195990Y171175D02*
Y174068D01*
X197565Y163557D02*
X200635D01*
X197565Y175643D02*
X200635D01*
X195990Y165131D02*
Y168025D01*
X212931Y145390D02*
X215825D01*
X218975Y145390D02*
X221868D01*
X218975Y151610D02*
X221868D01*
X211357Y146965D02*
Y150035D01*
X223443Y146965D02*
Y150035D01*
X212931Y151610D02*
X215825D01*
X233008Y260992D02*
X253508D01*
X258992Y255508D01*
Y253500D02*
Y255508D01*
X233008Y235008D02*
X253508D01*
X258992Y240492D01*
Y242500D01*
X233008Y253500D02*
Y260992D01*
Y235008D02*
Y242500D01*
X258500Y235500D02*
Y237500D01*
X257500Y236500D02*
X259500D01*
X131354Y291000D02*
Y296000D01*
X160646D01*
Y291000D02*
Y296000D01*
X109500Y291000D02*
X182500D01*
X109500Y121000D02*
X182500D01*
X109500D02*
Y291000D01*
X182500Y121000D02*
Y291000D01*
D33*
X232800Y292000D02*
Y300000D01*
Y292000D02*
X240800D01*
Y300000D01*
X232800D02*
X240800D01*
D34*
X219800Y180599D02*
Y178100D01*
X220300Y177600D01*
X221300D01*
X221799Y178100D01*
Y180599D01*
X224798Y177600D02*
X222799D01*
X224798Y179599D01*
Y180099D01*
X224299Y180599D01*
X223299D01*
X222799Y180099D01*
X110000Y297999D02*
Y295500D01*
X110500Y295000D01*
X111500D01*
X111999Y295500D01*
Y297999D01*
X112999Y295000D02*
X113999D01*
X113499D01*
Y297999D01*
X112999Y297499D01*
X221000Y209000D02*
Y211999D01*
X222499D01*
X222999Y211499D01*
Y210500D01*
X222499Y210000D01*
X221000D01*
X222000D02*
X222999Y209000D01*
X223999Y211499D02*
X224499Y211999D01*
X225499D01*
X225998Y211499D01*
Y210999D01*
X225499Y210500D01*
X225998Y210000D01*
Y209500D01*
X225499Y209000D01*
X224499D01*
X223999Y209500D01*
Y210000D01*
X224499Y210500D01*
X223999Y210999D01*
Y211499D01*
X224499Y210500D02*
X225499D01*
X214000Y209000D02*
Y211999D01*
X215499D01*
X215999Y211499D01*
Y210500D01*
X215499Y210000D01*
X214000D01*
X215000D02*
X215999Y209000D01*
X216999Y211999D02*
X218998D01*
Y211499D01*
X216999Y209500D01*
Y209000D01*
X246000Y137000D02*
Y139999D01*
X247499D01*
X247999Y139499D01*
Y138499D01*
X247499Y138000D01*
X246000D01*
X247000D02*
X247999Y137000D01*
X250998Y139999D02*
X249999Y139499D01*
X248999Y138499D01*
Y137500D01*
X249499Y137000D01*
X250499D01*
X250998Y137500D01*
Y138000D01*
X250499Y138499D01*
X248999D01*
X246000Y146000D02*
Y148999D01*
X247499D01*
X247999Y148499D01*
Y147500D01*
X247499Y147000D01*
X246000D01*
X247000D02*
X247999Y146000D01*
X250998Y148999D02*
X248999D01*
Y147500D01*
X249999Y147999D01*
X250499D01*
X250998Y147500D01*
Y146500D01*
X250499Y146000D01*
X249499D01*
X248999Y146500D01*
X214000Y183535D02*
Y186535D01*
X215499D01*
X215999Y186035D01*
Y185035D01*
X215499Y184535D01*
X214000D01*
X215000D02*
X215999Y183535D01*
X218498D02*
Y186535D01*
X216999Y185035D01*
X218998D01*
X222000Y183535D02*
Y186535D01*
X223499D01*
X223999Y186035D01*
Y185035D01*
X223499Y184535D01*
X222000D01*
X223000D02*
X223999Y183535D01*
X224999Y186035D02*
X225499Y186535D01*
X226499D01*
X226998Y186035D01*
Y185535D01*
X226499Y185035D01*
X225999D01*
X226499D01*
X226998Y184535D01*
Y184035D01*
X226499Y183535D01*
X225499D01*
X224999Y184035D01*
X271000Y132000D02*
Y134999D01*
X272499D01*
X272999Y134499D01*
Y133500D01*
X272499Y133000D01*
X271000D01*
X272000D02*
X272999Y132000D01*
X275998D02*
X273999D01*
X275998Y133999D01*
Y134499D01*
X275499Y134999D01*
X274499D01*
X273999Y134499D01*
X264000Y285000D02*
Y287999D01*
X265499D01*
X265999Y287499D01*
Y286500D01*
X265499Y286000D01*
X264000D01*
X265000D02*
X265999Y285000D01*
X266999D02*
X267999D01*
X267499D01*
Y287999D01*
X266999Y287499D01*
X272999Y145500D02*
Y147499D01*
X272499Y147999D01*
X271500D01*
X271000Y147499D01*
Y145500D01*
X271500Y145000D01*
X272499D01*
X272000Y146000D02*
X272999Y145000D01*
X272499D02*
X272999Y145500D01*
X275998Y145000D02*
X273999D01*
X275998Y146999D01*
Y147499D01*
X275499Y147999D01*
X274499D01*
X273999Y147499D01*
X265999Y273500D02*
Y275499D01*
X265499Y275999D01*
X264500D01*
X264000Y275499D01*
Y273500D01*
X264500Y273000D01*
X265499D01*
X265000Y274000D02*
X265999Y273000D01*
X265499D02*
X265999Y273500D01*
X266999Y273000D02*
X267999D01*
X267499D01*
Y275999D01*
X266999Y275499D01*
X265100Y234100D02*
Y237099D01*
X266599D01*
X267099Y236599D01*
Y235599D01*
X266599Y235100D01*
X265100D01*
X270098Y234100D02*
X268099D01*
X270098Y236099D01*
Y236599D01*
X269599Y237099D01*
X268599D01*
X268099Y236599D01*
X234799Y289499D02*
X234299Y289999D01*
X233300D01*
X232800Y289499D01*
Y287500D01*
X233300Y287000D01*
X234299D01*
X234799Y287500D01*
Y288499D01*
X233800D01*
X235799Y287000D02*
Y289999D01*
X237798Y287000D01*
Y289999D01*
X238798D02*
Y287000D01*
X240298D01*
X240797Y287500D01*
Y289499D01*
X240298Y289999D01*
X238798D01*
X198999Y161499D02*
X198500Y161999D01*
X197500D01*
X197000Y161499D01*
Y159500D01*
X197500Y159000D01*
X198500D01*
X198999Y159500D01*
X199999Y161499D02*
X200499Y161999D01*
X201499D01*
X201998Y161499D01*
Y160999D01*
X201499Y160500D01*
X200999D01*
X201499D01*
X201998Y160000D01*
Y159500D01*
X201499Y159000D01*
X200499D01*
X199999Y159500D01*
X216499Y142999D02*
X216000Y143499D01*
X215000D01*
X214500Y142999D01*
Y141000D01*
X215000Y140500D01*
X216000D01*
X216499Y141000D01*
X219498Y140500D02*
X217499D01*
X219498Y142499D01*
Y142999D01*
X218999Y143499D01*
X217999D01*
X217499Y142999D01*
X266999Y248499D02*
X266499Y248999D01*
X265500D01*
X265000Y248499D01*
Y246500D01*
X265500Y246000D01*
X266499D01*
X266999Y246500D01*
X267999Y246000D02*
X268999D01*
X268499D01*
Y248999D01*
X267999Y248499D01*
X196921Y293000D02*
Y295999D01*
X198421D01*
X198921Y295499D01*
Y294499D01*
X198421Y294000D01*
X196921D01*
X199920Y293000D02*
X200920D01*
X200420D01*
Y295999D01*
X199920Y295499D01*
X250000Y220000D02*
Y219000D01*
Y219500D01*
X252999D01*
X252499Y220000D01*
X222000Y252000D02*
X223000D01*
X222500D01*
Y254999D01*
X222000Y254499D01*
X199999Y252000D02*
X198000D01*
X199999Y253999D01*
Y254499D01*
X199499Y254999D01*
X198500D01*
X198000Y254499D01*
X187600Y118999D02*
X190266D01*
X188933D01*
Y115000D01*
X191599Y118999D02*
Y115000D01*
Y116999D01*
X192265Y117666D01*
X193598D01*
X194264Y116999D01*
Y115000D01*
X197597D02*
X196264D01*
X195597Y115666D01*
Y116999D01*
X196264Y117666D01*
X197597D01*
X198263Y116999D01*
Y116333D01*
X195597D01*
X199596Y117666D02*
Y115000D01*
Y116333D01*
X200263Y116999D01*
X200929Y117666D01*
X201595D01*
X203595Y115000D02*
Y117666D01*
X204261D01*
X204928Y116999D01*
Y115000D01*
Y116999D01*
X205594Y117666D01*
X206261Y116999D01*
Y115000D01*
X208260Y117666D02*
X209593D01*
X210259Y116999D01*
Y115000D01*
X208260D01*
X207594Y115666D01*
X208260Y116333D01*
X210259D01*
X211592Y115000D02*
X212925D01*
X212259D01*
Y118999D01*
X211592D01*
X218923D02*
X221589D01*
X220256D01*
Y115000D01*
X222922Y117666D02*
Y115666D01*
X223588Y115000D01*
X225588D01*
Y114333D01*
X224921Y113667D01*
X224255D01*
X225588Y115000D02*
Y117666D01*
X226921Y113667D02*
Y117666D01*
X228920D01*
X229587Y116999D01*
Y115666D01*
X228920Y115000D01*
X226921D01*
X232919D02*
X231586D01*
X230919Y115666D01*
Y116999D01*
X231586Y117666D01*
X232919D01*
X233585Y116999D01*
Y116333D01*
X230919D01*
X234918Y117666D02*
Y115666D01*
X235584Y115000D01*
X236251Y115666D01*
X236917Y115000D01*
X237584Y115666D01*
Y117666D01*
X238917D02*
Y115000D01*
Y116333D01*
X239583Y116999D01*
X240250Y117666D01*
X240916D01*
X242916Y115000D02*
X244248D01*
X243582D01*
Y117666D01*
X242916D01*
X246914Y118332D02*
Y117666D01*
X246248D01*
X247581D01*
X246914D01*
Y115666D01*
X247581Y115000D01*
X251579D02*
X250247D01*
X249580Y115666D01*
Y116999D01*
X250247Y117666D01*
X251579D01*
X252246Y116999D01*
Y116333D01*
X249580D01*
X253579Y117666D02*
Y115000D01*
Y116333D01*
X254245Y116999D01*
X254912Y117666D01*
X255578D01*
X261576D02*
X262909Y115000D01*
X264242Y117666D01*
X265575Y118332D02*
X266241Y118999D01*
X267574D01*
X268241Y118332D01*
Y115666D01*
X267574Y115000D01*
X266241D01*
X265575Y115666D01*
Y118332D01*
X269574Y115000D02*
Y115666D01*
X270240D01*
Y115000D01*
X269574D01*
X272906D02*
X274239D01*
X273572D01*
Y118999D01*
X272906Y118332D01*
M02*
