%FSLAX25Y25*%
%MOIN*%
G70*
G01*
G75*
G04 Layer_Physical_Order=1*
G04 Layer_Color=255*
%ADD10C,0.00800*%
%ADD11C,0.01000*%
%ADD12R,0.05906X0.01181*%
%ADD13R,0.11811X0.15748*%
%ADD14R,0.02756X0.04921*%
%ADD15R,0.04567X0.05787*%
%ADD16R,0.03858X0.03661*%
%ADD17R,0.03661X0.03858*%
%ADD18R,0.11811X0.05906*%
%ADD19R,0.11811X0.08268*%
%ADD20R,0.06299X0.00787*%
%ADD21C,0.01600*%
%ADD22C,0.06000*%
%ADD23C,0.04000*%
%ADD24C,0.02400*%
%ADD25C,0.01200*%
%ADD26R,0.13106X0.17374*%
%ADD27C,0.05906*%
%ADD28C,0.06000*%
%ADD29R,0.06000X0.06000*%
%ADD30C,0.07000*%
%ADD31C,0.01800*%
G36*
X278987Y111013D02*
X101013D01*
Y302987D01*
X278987D01*
Y111013D01*
D02*
G37*
%LPC*%
G36*
X176500Y169565D02*
Y166500D01*
X179565D01*
X179507Y166940D01*
X179145Y167815D01*
X178568Y168568D01*
X177815Y169145D01*
X176940Y169507D01*
X176500Y169565D01*
D02*
G37*
G36*
X116000Y179631D02*
X115060Y179507D01*
X114184Y179145D01*
X113432Y178568D01*
X112855Y177815D01*
X112493Y176940D01*
X112369Y176000D01*
X112493Y175060D01*
X112855Y174185D01*
X113432Y173432D01*
X114184Y172855D01*
X115060Y172493D01*
X116000Y172369D01*
X116940Y172493D01*
X117815Y172855D01*
X118568Y173432D01*
X119145Y174185D01*
X119507Y175060D01*
X119631Y176000D01*
X119507Y176940D01*
X119145Y177815D01*
X118568Y178568D01*
X117815Y179145D01*
X116940Y179507D01*
X116000Y179631D01*
D02*
G37*
G36*
X175500Y169565D02*
X175060Y169507D01*
X174185Y169145D01*
X173432Y168568D01*
X172855Y167815D01*
X172493Y166940D01*
X172435Y166500D01*
X175500D01*
Y169565D01*
D02*
G37*
G36*
Y165500D02*
X172435D01*
X172493Y165060D01*
X172855Y164184D01*
X173432Y163432D01*
X174185Y162855D01*
X175060Y162493D01*
X175500Y162435D01*
Y165500D01*
D02*
G37*
G36*
X179565D02*
X176500D01*
Y162435D01*
X176940Y162493D01*
X177815Y162855D01*
X178568Y163432D01*
X179145Y164184D01*
X179507Y165060D01*
X179565Y165500D01*
D02*
G37*
G36*
X116000Y199631D02*
X115060Y199507D01*
X114184Y199145D01*
X113432Y198568D01*
X112855Y197816D01*
X112493Y196940D01*
X112369Y196000D01*
X112493Y195060D01*
X112855Y194185D01*
X113432Y193432D01*
X114184Y192855D01*
X115060Y192493D01*
X116000Y192369D01*
X116940Y192493D01*
X117815Y192855D01*
X118568Y193432D01*
X119145Y194185D01*
X119507Y195060D01*
X119631Y196000D01*
X119507Y196940D01*
X119145Y197816D01*
X118568Y198568D01*
X117815Y199145D01*
X116940Y199507D01*
X116000Y199631D01*
D02*
G37*
G36*
Y209631D02*
X115060Y209507D01*
X114184Y209145D01*
X113432Y208568D01*
X112855Y207816D01*
X112493Y206940D01*
X112369Y206000D01*
X112493Y205060D01*
X112855Y204185D01*
X113432Y203432D01*
X114184Y202855D01*
X115060Y202493D01*
X116000Y202369D01*
X116940Y202493D01*
X117815Y202855D01*
X118568Y203432D01*
X119145Y204185D01*
X119507Y205060D01*
X119631Y206000D01*
X119507Y206940D01*
X119145Y207816D01*
X118568Y208568D01*
X117815Y209145D01*
X116940Y209507D01*
X116000Y209631D01*
D02*
G37*
G36*
X176000Y189631D02*
X175060Y189507D01*
X174185Y189145D01*
X173432Y188568D01*
X172855Y187815D01*
X172493Y186940D01*
X172369Y186000D01*
X172493Y185060D01*
X172855Y184185D01*
X173432Y183432D01*
X174185Y182855D01*
X175060Y182493D01*
X176000Y182369D01*
X176940Y182493D01*
X177815Y182855D01*
X178568Y183432D01*
X179145Y184185D01*
X179507Y185060D01*
X179631Y186000D01*
X179507Y186940D01*
X179145Y187815D01*
X178568Y188568D01*
X177815Y189145D01*
X176940Y189507D01*
X176000Y189631D01*
D02*
G37*
G36*
Y179631D02*
X175060Y179507D01*
X174185Y179145D01*
X173432Y178568D01*
X172855Y177815D01*
X172493Y176940D01*
X172369Y176000D01*
X172493Y175060D01*
X172855Y174185D01*
X173432Y173432D01*
X174185Y172855D01*
X175060Y172493D01*
X176000Y172369D01*
X176940Y172493D01*
X177815Y172855D01*
X178568Y173432D01*
X179145Y174185D01*
X179507Y175060D01*
X179631Y176000D01*
X179507Y176940D01*
X179145Y177815D01*
X178568Y178568D01*
X177815Y179145D01*
X176940Y179507D01*
X176000Y179631D01*
D02*
G37*
G36*
X116000Y189631D02*
X115060Y189507D01*
X114184Y189145D01*
X113432Y188568D01*
X112855Y187815D01*
X112493Y186940D01*
X112369Y186000D01*
X112493Y185060D01*
X112855Y184185D01*
X113432Y183432D01*
X114184Y182855D01*
X115060Y182493D01*
X116000Y182369D01*
X116940Y182493D01*
X117815Y182855D01*
X118568Y183432D01*
X119145Y184185D01*
X119507Y185060D01*
X119631Y186000D01*
X119507Y186940D01*
X119145Y187815D01*
X118568Y188568D01*
X117815Y189145D01*
X116940Y189507D01*
X116000Y189631D01*
D02*
G37*
G36*
X115500Y145500D02*
X112435D01*
X112493Y145060D01*
X112855Y144185D01*
X113432Y143432D01*
X114184Y142855D01*
X115060Y142493D01*
X115500Y142435D01*
Y145500D01*
D02*
G37*
G36*
X119565D02*
X116500D01*
Y142435D01*
X116940Y142493D01*
X117815Y142855D01*
X118568Y143432D01*
X119145Y144185D01*
X119507Y145060D01*
X119565Y145500D01*
D02*
G37*
G36*
X176000Y149631D02*
X175060Y149507D01*
X174185Y149145D01*
X173432Y148568D01*
X172855Y147816D01*
X172493Y146940D01*
X172369Y146000D01*
X172493Y145060D01*
X172855Y144185D01*
X173432Y143432D01*
X174185Y142855D01*
X175060Y142493D01*
X176000Y142369D01*
X176940Y142493D01*
X177815Y142855D01*
X178568Y143432D01*
X179145Y144185D01*
X179507Y145060D01*
X179631Y146000D01*
X179507Y146940D01*
X179145Y147816D01*
X178568Y148568D01*
X177815Y149145D01*
X176940Y149507D01*
X176000Y149631D01*
D02*
G37*
G36*
X116000Y139631D02*
X115060Y139507D01*
X114184Y139145D01*
X113432Y138568D01*
X112855Y137815D01*
X112493Y136940D01*
X112369Y136000D01*
X112493Y135060D01*
X112855Y134185D01*
X113432Y133432D01*
X114184Y132855D01*
X115060Y132493D01*
X116000Y132369D01*
X116940Y132493D01*
X117815Y132855D01*
X118568Y133432D01*
X119145Y134185D01*
X119507Y135060D01*
X119631Y136000D01*
X119507Y136940D01*
X119145Y137815D01*
X118568Y138568D01*
X117815Y139145D01*
X116940Y139507D01*
X116000Y139631D01*
D02*
G37*
G36*
X179600Y139600D02*
X172400D01*
Y132400D01*
X179600D01*
Y139600D01*
D02*
G37*
G36*
X176000Y159631D02*
X175060Y159507D01*
X174185Y159145D01*
X173432Y158568D01*
X172855Y157816D01*
X172493Y156940D01*
X172369Y156000D01*
X172493Y155060D01*
X172855Y154184D01*
X173432Y153432D01*
X174185Y152855D01*
X175060Y152493D01*
X176000Y152369D01*
X176940Y152493D01*
X177815Y152855D01*
X178568Y153432D01*
X179145Y154184D01*
X179507Y155060D01*
X179631Y156000D01*
X179507Y156940D01*
X179145Y157816D01*
X178568Y158568D01*
X177815Y159145D01*
X176940Y159507D01*
X176000Y159631D01*
D02*
G37*
G36*
X116000Y169631D02*
X115060Y169507D01*
X114184Y169145D01*
X113432Y168568D01*
X112855Y167815D01*
X112493Y166940D01*
X112369Y166000D01*
X112493Y165060D01*
X112855Y164184D01*
X113432Y163432D01*
X114184Y162855D01*
X115060Y162493D01*
X116000Y162369D01*
X116940Y162493D01*
X117815Y162855D01*
X118568Y163432D01*
X119145Y164184D01*
X119507Y165060D01*
X119631Y166000D01*
X119507Y166940D01*
X119145Y167815D01*
X118568Y168568D01*
X117815Y169145D01*
X116940Y169507D01*
X116000Y169631D01*
D02*
G37*
G36*
Y159631D02*
X115060Y159507D01*
X114184Y159145D01*
X113432Y158568D01*
X112855Y157816D01*
X112493Y156940D01*
X112369Y156000D01*
X112493Y155060D01*
X112855Y154184D01*
X113432Y153432D01*
X114184Y152855D01*
X115060Y152493D01*
X116000Y152369D01*
X116940Y152493D01*
X117815Y152855D01*
X118568Y153432D01*
X119145Y154184D01*
X119507Y155060D01*
X119631Y156000D01*
X119507Y156940D01*
X119145Y157816D01*
X118568Y158568D01*
X117815Y159145D01*
X116940Y159507D01*
X116000Y159631D01*
D02*
G37*
G36*
X115500Y149565D02*
X115060Y149507D01*
X114184Y149145D01*
X113432Y148568D01*
X112855Y147816D01*
X112493Y146940D01*
X112435Y146500D01*
X115500D01*
Y149565D01*
D02*
G37*
G36*
X116500D02*
Y146500D01*
X119565D01*
X119507Y146940D01*
X119145Y147816D01*
X118568Y148568D01*
X117815Y149145D01*
X116940Y149507D01*
X116500Y149565D01*
D02*
G37*
G36*
X242269Y251553D02*
X236264D01*
Y248500D01*
X242269D01*
Y251553D01*
D02*
G37*
G36*
X205500Y253500D02*
X201930D01*
X202006Y252930D01*
X202419Y251932D01*
X203076Y251076D01*
X203932Y250419D01*
X204930Y250006D01*
X205500Y249931D01*
Y253500D01*
D02*
G37*
G36*
X210069D02*
X206500D01*
Y249931D01*
X207070Y250006D01*
X208068Y250419D01*
X208924Y251076D01*
X209581Y251932D01*
X209995Y252930D01*
X210069Y253500D01*
D02*
G37*
G36*
X235264Y247500D02*
X229258D01*
Y244447D01*
X235264D01*
Y247500D01*
D02*
G37*
G36*
X242269D02*
X236264D01*
Y244447D01*
X242269D01*
Y247500D01*
D02*
G37*
G36*
X235264Y251553D02*
X229258D01*
Y248500D01*
X235264D01*
Y251553D01*
D02*
G37*
G36*
X116000Y259631D02*
X115060Y259507D01*
X114184Y259145D01*
X113432Y258568D01*
X112855Y257816D01*
X112493Y256940D01*
X112369Y256000D01*
X112493Y255060D01*
X112855Y254185D01*
X113432Y253432D01*
X114184Y252855D01*
X115060Y252493D01*
X116000Y252369D01*
X116940Y252493D01*
X117815Y252855D01*
X118568Y253432D01*
X119145Y254185D01*
X119507Y255060D01*
X119631Y256000D01*
X119507Y256940D01*
X119145Y257816D01*
X118568Y258568D01*
X117815Y259145D01*
X116940Y259507D01*
X116000Y259631D01*
D02*
G37*
G36*
X236300Y295500D02*
X233282D01*
X233339Y295073D01*
X233697Y294208D01*
X234266Y293466D01*
X235008Y292897D01*
X235873Y292539D01*
X236300Y292482D01*
Y295500D01*
D02*
G37*
G36*
X255399Y289529D02*
X250538D01*
Y284471D01*
X251240D01*
Y283843D01*
X251217Y283668D01*
D01*
Y283668D01*
X251101Y283552D01*
X234121D01*
X233182Y283429D01*
X232306Y283066D01*
X231554Y282489D01*
X213275Y264210D01*
X212698Y263458D01*
X212335Y262582D01*
X212211Y261643D01*
Y255948D01*
X211848Y255070D01*
X211707Y254000D01*
X211848Y252930D01*
X212261Y251932D01*
X212918Y251076D01*
X213775Y250419D01*
X214772Y250006D01*
X215843Y249865D01*
X216913Y250006D01*
X217910Y250419D01*
X218767Y251076D01*
X219424Y251932D01*
X219837Y252930D01*
X219978Y254000D01*
X219837Y255070D01*
X219474Y255948D01*
Y260139D01*
X235625Y276290D01*
X252260D01*
X253200Y276414D01*
X254075Y276777D01*
X254185Y276861D01*
X254238D01*
Y276901D01*
X254827Y277354D01*
X255404Y278106D01*
X255767Y278981D01*
X255891Y279921D01*
X255767Y280861D01*
X255404Y281737D01*
X254827Y282489D01*
X254238Y282941D01*
Y282982D01*
X254185D01*
X254075Y283066D01*
X253879Y283147D01*
X253688Y283609D01*
X253920Y284169D01*
X254152Y284471D01*
X255399D01*
Y289529D01*
D02*
G37*
G36*
X161900Y281222D02*
X161900Y281222D01*
X114302D01*
X114302Y281222D01*
X113873Y281136D01*
X113509Y280893D01*
X111107Y278491D01*
X110864Y278128D01*
X110778Y277698D01*
X110778Y277698D01*
Y270100D01*
X110778Y270100D01*
X110864Y269671D01*
X111107Y269307D01*
X111107Y269307D01*
D01*
X111100Y269300D01*
X111164Y269247D01*
X111806Y268410D01*
X112242Y267358D01*
X112391Y266230D01*
X112374Y266104D01*
X112374D01*
X112381Y266096D01*
X112369Y266000D01*
X112493Y265060D01*
X112855Y264184D01*
X113432Y263433D01*
X114184Y262855D01*
X115060Y262493D01*
X116000Y262369D01*
X116940Y262493D01*
X117815Y262855D01*
X118568Y263433D01*
X119145Y264184D01*
X119507Y265060D01*
X119631Y266000D01*
X119507Y266940D01*
X119145Y267815D01*
X118568Y268567D01*
X117815Y269145D01*
X116940Y269507D01*
X116000Y269631D01*
X115904Y269619D01*
X115896Y269626D01*
Y269626D01*
X115770Y269609D01*
X114642Y269758D01*
X113590Y270194D01*
X113022Y270630D01*
Y273183D01*
X113470Y273404D01*
X114184Y272855D01*
X115060Y272493D01*
X116000Y272369D01*
X116099Y272382D01*
X117365Y272216D01*
X118636Y271689D01*
X119623Y270932D01*
X119706Y270830D01*
X119718Y270841D01*
X130179Y260379D01*
X130510Y260158D01*
X130900Y260080D01*
X175591D01*
X175623Y259581D01*
X175060Y259507D01*
X174185Y259145D01*
X173432Y258568D01*
X172855Y257816D01*
X172493Y256940D01*
X172369Y256000D01*
X172493Y255060D01*
X172855Y254185D01*
X173432Y253432D01*
X174185Y252855D01*
X175060Y252493D01*
X176000Y252369D01*
X176940Y252493D01*
X177815Y252855D01*
X178568Y253432D01*
X178887Y253849D01*
X179360Y253688D01*
Y248312D01*
X178887Y248151D01*
X178568Y248568D01*
X177815Y249145D01*
X176940Y249507D01*
X176000Y249631D01*
X175060Y249507D01*
X174185Y249145D01*
X173432Y248568D01*
X172855Y247815D01*
X172493Y246940D01*
X172369Y246000D01*
X172493Y245060D01*
X172855Y244184D01*
X173432Y243432D01*
X174185Y242855D01*
X175060Y242493D01*
X176000Y242369D01*
X176940Y242493D01*
X177815Y242855D01*
X178568Y243432D01*
X178887Y243848D01*
X179360Y243688D01*
Y238312D01*
X178887Y238152D01*
X178568Y238567D01*
X177815Y239145D01*
X176940Y239507D01*
X176000Y239631D01*
X175060Y239507D01*
X174185Y239145D01*
X173432Y238567D01*
X172855Y237815D01*
X172493Y236940D01*
X172369Y236000D01*
X172493Y235060D01*
X172717Y234518D01*
X172301Y234241D01*
X159821Y246721D01*
X159490Y246942D01*
X159100Y247020D01*
X122277D01*
Y247035D01*
X122145Y247022D01*
X120912Y247184D01*
X119641Y247711D01*
X118629Y248488D01*
X118568Y248568D01*
X117815Y249145D01*
X116940Y249507D01*
X116000Y249631D01*
X115060Y249507D01*
X114184Y249145D01*
X113432Y248568D01*
X112855Y247815D01*
X112493Y246940D01*
X112369Y246000D01*
X112493Y245060D01*
X112855Y244184D01*
X113432Y243432D01*
X114184Y242855D01*
X115060Y242493D01*
X116000Y242369D01*
X116940Y242493D01*
X117815Y242855D01*
X118568Y243432D01*
X118629Y243512D01*
X119641Y244289D01*
X120912Y244815D01*
X122145Y244978D01*
X122277Y244965D01*
Y244980D01*
X158678D01*
X173179Y230479D01*
X173510Y230258D01*
X173900Y230180D01*
X177678D01*
X189880Y217978D01*
Y214709D01*
X189418Y214518D01*
X182003Y221933D01*
X182019Y221948D01*
X181850Y222087D01*
X180786Y223150D01*
X180160Y223966D01*
X179754Y224947D01*
X179623Y225940D01*
X179631Y226000D01*
X179507Y226940D01*
X179145Y227816D01*
X178568Y228568D01*
X177815Y229145D01*
X176940Y229507D01*
X176000Y229631D01*
X175060Y229507D01*
X174185Y229145D01*
X173432Y228568D01*
X172855Y227816D01*
X172493Y226940D01*
X172369Y226000D01*
X172493Y225060D01*
X172855Y224184D01*
X173432Y223432D01*
X174185Y222855D01*
X175060Y222493D01*
X175623Y222418D01*
X175591Y221920D01*
X172800D01*
X172410Y221842D01*
X172079Y221621D01*
X169379Y218921D01*
X169158Y218590D01*
X169080Y218200D01*
Y201900D01*
X169080Y201900D01*
X169080D01*
X169158Y201510D01*
X169379Y201179D01*
X170841Y199717D01*
X170829Y199706D01*
X170932Y199622D01*
X171689Y198636D01*
X172215Y197364D01*
X172382Y196099D01*
X172369Y196000D01*
X172493Y195060D01*
X172855Y194185D01*
X173432Y193432D01*
X174185Y192855D01*
X175060Y192493D01*
X176000Y192369D01*
X176940Y192493D01*
X177815Y192855D01*
X178568Y193432D01*
X179145Y194185D01*
X179507Y195060D01*
X179631Y196000D01*
X179507Y196940D01*
X179145Y197816D01*
X178568Y198568D01*
X177815Y199145D01*
X176940Y199507D01*
X176000Y199631D01*
X175901Y199618D01*
X174636Y199785D01*
X173364Y200311D01*
X172378Y201068D01*
X172293Y201170D01*
X172283Y201159D01*
X171120Y202322D01*
Y217778D01*
X173222Y219880D01*
X174679D01*
X174777Y219390D01*
X174185Y219145D01*
X173432Y218567D01*
X172855Y217815D01*
X172493Y216940D01*
X172369Y216000D01*
X172493Y215060D01*
X172855Y214184D01*
X173432Y213433D01*
X174185Y212855D01*
X175060Y212493D01*
X176000Y212369D01*
X176099Y212382D01*
X177365Y212215D01*
X178636Y211689D01*
X179622Y210932D01*
X179707Y210829D01*
X179718Y210841D01*
X180280Y210278D01*
Y205152D01*
X180108Y205118D01*
X179701Y205409D01*
X179627Y205972D01*
X179631Y206000D01*
X179507Y206940D01*
X179145Y207816D01*
X178568Y208568D01*
X177815Y209145D01*
X176940Y209507D01*
X176000Y209631D01*
X175060Y209507D01*
X174185Y209145D01*
X173432Y208568D01*
X172855Y207816D01*
X172493Y206940D01*
X172369Y206000D01*
X172493Y205060D01*
X172855Y204185D01*
X173432Y203432D01*
X174185Y202855D01*
X175060Y202493D01*
X176000Y202369D01*
X176073Y202379D01*
X177451Y202243D01*
X178846Y201820D01*
X180131Y201133D01*
X181215Y200243D01*
X206472Y174986D01*
X206397Y174608D01*
X206338Y174467D01*
X201629D01*
Y175062D01*
X196571D01*
Y170201D01*
X201629D01*
Y170796D01*
X205608D01*
X206702Y169702D01*
X206755Y169667D01*
X207129Y169107D01*
X207146Y168941D01*
X206608Y168404D01*
X201629D01*
Y168999D01*
X196571D01*
Y164138D01*
X197265D01*
Y141400D01*
X197381Y140814D01*
X197404Y140698D01*
X197802Y140102D01*
X212902Y125002D01*
X213300Y124736D01*
X213498Y124604D01*
X214200Y124465D01*
X269700D01*
X270286Y124581D01*
X270402Y124604D01*
X270998Y125002D01*
X275621Y129625D01*
X276018Y130220D01*
X276042Y130337D01*
X276158Y130923D01*
Y180193D01*
X276890Y180755D01*
X277467Y181507D01*
X277830Y182383D01*
X277954Y183323D01*
Y209100D01*
Y242677D01*
X277954Y242677D01*
X277830Y243617D01*
X277574Y244236D01*
X277467Y244493D01*
X276890Y245245D01*
X276890Y245245D01*
X276890D01*
X276890Y245245D01*
Y245245D01*
X271568Y250568D01*
D01*
X271568Y250568D01*
D01*
D01*
D01*
X271568Y250568D01*
X271568Y250568D01*
X270815Y251145D01*
X269940Y251507D01*
X269000Y251631D01*
X259631D01*
Y270079D01*
X259507Y271019D01*
X259145Y271894D01*
X258568Y272646D01*
X257978Y273099D01*
Y273139D01*
X257925D01*
X257816Y273223D01*
X256940Y273586D01*
X256000Y273710D01*
X255060Y273586D01*
X254185Y273223D01*
X254075Y273139D01*
X254022D01*
Y273099D01*
X253432Y272646D01*
X252855Y271894D01*
X252493Y271019D01*
X252369Y270079D01*
Y251553D01*
X249731D01*
Y244447D01*
X255641D01*
X256236Y244369D01*
X267496D01*
X270692Y241173D01*
Y231773D01*
X257912D01*
Y222305D01*
X270692D01*
Y212731D01*
X261000D01*
X260060Y212607D01*
X259185Y212245D01*
X258569Y211773D01*
X258526Y211816D01*
X258196Y212036D01*
X257805Y212114D01*
X256750D01*
Y214038D01*
Y214531D01*
X249250D01*
Y214083D01*
X248359D01*
X241922Y220520D01*
X241591Y220741D01*
X241201Y220819D01*
X226129D01*
Y221785D01*
X226214Y221842D01*
X227045Y222007D01*
X227152Y221993D01*
Y222012D01*
X241546D01*
X247279Y216279D01*
X247610Y216058D01*
X248000Y215980D01*
X249250D01*
Y215531D01*
X256750D01*
Y216006D01*
Y217994D01*
X253130D01*
X253000Y218020D01*
X248422D01*
X242689Y223752D01*
X242359Y223973D01*
X241968Y224051D01*
X227152D01*
Y224070D01*
X227045Y224056D01*
X226214Y224221D01*
X226129Y224278D01*
Y225462D01*
X223600D01*
X223502Y225482D01*
Y225482D01*
X223490Y225472D01*
X222656Y225638D01*
X221991Y226082D01*
X221823Y226251D01*
X221725Y226378D01*
X221711Y226363D01*
X221490Y226583D01*
X221160Y226804D01*
X220769Y226882D01*
X197660D01*
X185800Y238742D01*
Y267220D01*
X185722Y267610D01*
X185501Y267941D01*
X181159Y272283D01*
X181170Y272293D01*
X181068Y272377D01*
X180311Y273364D01*
X179785Y274636D01*
X179618Y275901D01*
X179631Y276000D01*
X179507Y276940D01*
X179145Y277816D01*
X178568Y278568D01*
X177815Y279145D01*
X176940Y279507D01*
X176000Y279631D01*
X175060Y279507D01*
X174185Y279145D01*
X173432Y278568D01*
X172855Y277816D01*
X172493Y276940D01*
X172369Y276000D01*
X172493Y275060D01*
X172855Y274184D01*
X173432Y273432D01*
X174185Y272855D01*
X175014Y272512D01*
X174916Y272022D01*
X171565D01*
X162693Y280893D01*
X162329Y281136D01*
X161900Y281222D01*
D02*
G37*
G36*
X205500Y258069D02*
X204930Y257995D01*
X203932Y257581D01*
X203076Y256924D01*
X202419Y256068D01*
X202006Y255070D01*
X201930Y254500D01*
X205500D01*
Y258069D01*
D02*
G37*
G36*
X206500D02*
Y254500D01*
X210069D01*
X209995Y255070D01*
X209581Y256068D01*
X208924Y256924D01*
X208068Y257581D01*
X207070Y257995D01*
X206500Y258069D01*
D02*
G37*
G36*
X261462Y289529D02*
X256601D01*
Y284471D01*
X257849D01*
X258080Y284169D01*
X258400Y283398D01*
X258122Y282982D01*
X257762D01*
Y276861D01*
X261718D01*
Y278548D01*
X262090Y278874D01*
X262123D01*
X262152Y278870D01*
Y278870D01*
X262486D01*
X262493Y278863D01*
Y278863D01*
D01*
D01*
D01*
D01*
D01*
Y278863D01*
D01*
D01*
X262493D01*
X262493Y278863D01*
X262493Y278857D01*
D01*
D01*
X262494Y278857D01*
D01*
X262494D01*
X262494D01*
D01*
X262503Y278859D01*
X262613Y278813D01*
X262613D01*
D01*
D01*
D01*
D01*
D01*
X262619Y278819D01*
D01*
X263115Y278487D01*
X263700Y278371D01*
X264285Y278487D01*
X264781Y278819D01*
X265113Y279315D01*
X265229Y279900D01*
X265113Y280485D01*
X264781Y280981D01*
X264285Y281313D01*
X263700Y281429D01*
X263115Y281313D01*
X262619Y280981D01*
X262615Y280985D01*
X262613Y280987D01*
D01*
D01*
D01*
X262503Y280941D01*
X262494Y280943D01*
X262494Y280943D01*
D01*
X262494D01*
D01*
D01*
X262493Y280943D01*
Y280943D01*
D01*
D01*
X262493Y280937D01*
X262493Y280937D01*
D01*
D01*
X262493Y280937D01*
X262479Y280923D01*
X262153D01*
Y280923D01*
X262152Y280923D01*
X261718Y281009D01*
Y282982D01*
X261098D01*
X260768Y283358D01*
X260769Y283365D01*
X260769D01*
Y283654D01*
X260783Y283668D01*
X260783D01*
X260760Y283843D01*
Y284471D01*
X261462D01*
Y289529D01*
D02*
G37*
G36*
X116000Y219631D02*
X115060Y219507D01*
X114184Y219145D01*
X113432Y218567D01*
X112855Y217815D01*
X112493Y216940D01*
X112369Y216000D01*
X112493Y215060D01*
X112855Y214184D01*
X113432Y213433D01*
X114184Y212855D01*
X115060Y212493D01*
X116000Y212369D01*
X116940Y212493D01*
X117815Y212855D01*
X118568Y213433D01*
X119145Y214184D01*
X119507Y215060D01*
X119631Y216000D01*
X119507Y216940D01*
X119145Y217815D01*
X118568Y218567D01*
X117815Y219145D01*
X116940Y219507D01*
X116000Y219631D01*
D02*
G37*
G36*
X236300Y299518D02*
X235873Y299461D01*
X235008Y299103D01*
X234266Y298534D01*
X233697Y297792D01*
X233339Y296927D01*
X233282Y296500D01*
X236300D01*
Y299518D01*
D02*
G37*
G36*
X240318Y295500D02*
X237300D01*
Y292482D01*
X237727Y292539D01*
X238592Y292897D01*
X239334Y293466D01*
X239903Y294208D01*
X240261Y295073D01*
X240318Y295500D01*
D02*
G37*
G36*
X116000Y229631D02*
X115060Y229507D01*
X114184Y229145D01*
X113432Y228568D01*
X112855Y227816D01*
X112493Y226940D01*
X112369Y226000D01*
X112493Y225060D01*
X112855Y224184D01*
X113432Y223432D01*
X114184Y222855D01*
X115060Y222493D01*
X116000Y222369D01*
X116940Y222493D01*
X117815Y222855D01*
X118568Y223432D01*
X119145Y224184D01*
X119507Y225060D01*
X119631Y226000D01*
X119507Y226940D01*
X119145Y227816D01*
X118568Y228568D01*
X117815Y229145D01*
X116940Y229507D01*
X116000Y229631D01*
D02*
G37*
G36*
X237300Y299518D02*
Y296500D01*
X240318D01*
X240261Y296927D01*
X239903Y297792D01*
X239334Y298534D01*
X238592Y299103D01*
X237727Y299461D01*
X237300Y299518D01*
D02*
G37*
G36*
X116000Y239631D02*
X115060Y239507D01*
X114184Y239145D01*
X113432Y238567D01*
X112855Y237815D01*
X112493Y236940D01*
X112369Y236000D01*
X112493Y235060D01*
X112855Y234185D01*
X113432Y233433D01*
X114184Y232855D01*
X115060Y232493D01*
X116000Y232369D01*
X116940Y232493D01*
X117815Y232855D01*
X118568Y233433D01*
X119145Y234185D01*
X119507Y235060D01*
X119631Y236000D01*
X119507Y236940D01*
X119145Y237815D01*
X118568Y238567D01*
X117815Y239145D01*
X116940Y239507D01*
X116000Y239631D01*
D02*
G37*
%LPD*%
G36*
X213367Y218615D02*
X213367Y218615D01*
D01*
X213426Y218556D01*
X213887Y217866D01*
X214063Y216985D01*
X214049Y216968D01*
X214049D01*
X214071Y216860D01*
Y214538D01*
X219129D01*
Y215703D01*
X219828Y215842D01*
X219911Y215831D01*
Y215831D01*
X219911D01*
X219911Y215831D01*
X220289D01*
Y215831D01*
X220373Y215842D01*
X221071Y215703D01*
Y214538D01*
X226129D01*
Y215663D01*
X226709Y215778D01*
X226942D01*
X227076Y215761D01*
Y215778D01*
X227329D01*
X227434Y215735D01*
Y215735D01*
X227440Y215738D01*
X227815Y215487D01*
X228400Y215371D01*
X228985Y215487D01*
X229481Y215819D01*
X229813Y216315D01*
X229929Y216900D01*
X229813Y217485D01*
X229481Y217981D01*
X228985Y218313D01*
X228400Y218429D01*
X228750Y218780D01*
X240778D01*
X247216Y212342D01*
X247547Y212121D01*
X247937Y212043D01*
X249250D01*
Y210101D01*
Y208132D01*
Y206209D01*
X248033D01*
X241721Y212521D01*
X241390Y212742D01*
X241000Y212820D01*
X207480D01*
X197521Y222779D01*
X197712Y223241D01*
X208742D01*
X213367Y218615D01*
D02*
G37*
G36*
X170307Y270107D02*
X170307Y270107D01*
X170671Y269864D01*
Y269864D01*
X170671D01*
Y269864D01*
D01*
D01*
D01*
X170671D01*
Y269864D01*
D01*
X170671Y269864D01*
X170671Y269864D01*
X171100Y269778D01*
X174433D01*
X174531Y269288D01*
X174185Y269145D01*
X173432Y268567D01*
X172855Y267815D01*
X172493Y266940D01*
X172369Y266000D01*
X172493Y265060D01*
X172855Y264184D01*
X173432Y263433D01*
X174185Y262855D01*
X174777Y262610D01*
X174679Y262120D01*
X131322D01*
X121159Y272283D01*
X121170Y272293D01*
X121068Y272377D01*
X120311Y273364D01*
X119784Y274636D01*
X119618Y275901D01*
X119631Y276000D01*
X119507Y276940D01*
X119145Y277816D01*
X118568Y278568D01*
X118707Y278978D01*
X161435D01*
X170307Y270107D01*
D02*
G37*
G36*
X205756Y209679D02*
X206087Y209458D01*
X206477Y209380D01*
X239998D01*
X246879Y202500D01*
D01*
X246879D01*
X246879Y202500D01*
X246879Y202500D01*
X246879D01*
D01*
X246879D01*
X246879Y202500D01*
Y202500D01*
X246879Y202500D01*
Y202500D01*
X247210Y202278D01*
X247600Y202201D01*
X249250D01*
Y201752D01*
X256750D01*
Y202227D01*
Y204195D01*
Y206138D01*
X257958D01*
X258348Y206216D01*
X258614Y206393D01*
X259185Y205955D01*
X260060Y205593D01*
X261000Y205469D01*
X270692D01*
Y183400D01*
X270514Y183222D01*
X260300D01*
X259621Y183133D01*
X258989Y182871D01*
X258594Y182568D01*
X258500Y182587D01*
X256750D01*
Y184510D01*
Y185004D01*
X249250D01*
Y184555D01*
X222915D01*
X222724Y185017D01*
X224421Y186714D01*
X224642Y187045D01*
X224720Y187435D01*
Y187514D01*
X224738D01*
X224724Y187622D01*
X224889Y188452D01*
X224946Y188538D01*
X226229D01*
Y189776D01*
X226345Y189865D01*
X227296Y190259D01*
X228292Y190390D01*
X249250D01*
Y189941D01*
X256750D01*
Y190416D01*
Y192384D01*
Y194353D01*
Y196321D01*
Y196815D01*
X249250D01*
Y196366D01*
X235076D01*
X233689Y197752D01*
X233359Y197974D01*
X232968Y198051D01*
X229654D01*
X229607Y198075D01*
D01*
D01*
D01*
D01*
D01*
X229607Y198075D01*
X229547Y198097D01*
X229487Y198118D01*
X229481Y198113D01*
X228985Y198444D01*
X228400Y198561D01*
X227815Y198444D01*
X227319Y198113D01*
X227315Y198116D01*
X227313Y198118D01*
Y198118D01*
D01*
D01*
D01*
X227313D01*
D01*
D01*
D01*
D01*
D01*
D01*
X227313Y198118D01*
X227313D01*
D01*
X227203Y198073D01*
X227194Y198074D01*
D01*
X227194D01*
D01*
D01*
X227193Y198075D01*
Y198075D01*
D01*
D01*
X227193Y198069D01*
X227193Y198069D01*
D01*
D01*
D01*
D01*
Y198062D01*
X227145Y198056D01*
X226314Y198221D01*
X226229Y198278D01*
Y199462D01*
X221171D01*
Y194819D01*
X220355D01*
X220031Y195142D01*
X220037Y195148D01*
X219613Y195699D01*
X219347Y196342D01*
X219256Y197031D01*
X219249D01*
X219229Y197130D01*
Y199462D01*
X214171D01*
Y198278D01*
X214086Y198221D01*
X213255Y198056D01*
X213147Y198070D01*
Y198051D01*
X204491D01*
X193320Y209222D01*
Y219700D01*
X193242Y220090D01*
X193021Y220421D01*
X181159Y232282D01*
X181170Y232294D01*
X181068Y232378D01*
X180311Y233364D01*
X179785Y234635D01*
X179732Y235034D01*
X180181Y235255D01*
X205756Y209679D01*
D02*
G37*
G36*
X213147Y195993D02*
X213255Y196007D01*
X214086Y195842D01*
X214171Y195785D01*
Y194601D01*
X216700D01*
X216798Y194581D01*
Y194581D01*
X216810Y194591D01*
X217644Y194425D01*
X218159Y194081D01*
X218176Y193581D01*
X217939Y193399D01*
X217200D01*
Y191469D01*
X219229D01*
Y192525D01*
X219616Y192843D01*
X219932Y192780D01*
X221171D01*
Y188538D01*
X222453D01*
X222511Y188452D01*
X222637Y187815D01*
X220778Y185955D01*
X214607D01*
X205012Y195550D01*
X205203Y196012D01*
X213147D01*
Y195993D01*
D02*
G37*
G36*
X187080Y210878D02*
Y207060D01*
X187080Y207060D01*
X187080D01*
X187158Y206670D01*
X187379Y206339D01*
X212304Y181414D01*
D01*
X212304D01*
X212304Y181414D01*
X212304Y181414D01*
X212304D01*
D01*
X212304D01*
X212304Y181414D01*
Y181414D01*
X212304Y181414D01*
Y181414D01*
X212635Y181193D01*
X213025Y181116D01*
X230842D01*
X233180Y178778D01*
Y175074D01*
X232805D01*
Y175074D01*
X226800D01*
Y166599D01*
Y158126D01*
X232805D01*
Y158126D01*
X233255D01*
X233258Y158110D01*
X233479Y157779D01*
X234379Y156879D01*
D01*
X234379Y156879D01*
X234379Y156879D01*
D01*
D01*
D01*
X234379Y156879D01*
Y156879D01*
X234710Y156658D01*
X235100Y156580D01*
X235247D01*
Y156409D01*
X242353D01*
Y156580D01*
X245978D01*
X258357Y144201D01*
X258222Y143876D01*
X258102Y143739D01*
X257482D01*
Y137618D01*
X258102D01*
X258432Y137242D01*
X258431Y137235D01*
X258431D01*
Y136946D01*
X258417Y136932D01*
X258417D01*
X258440Y136757D01*
Y136129D01*
X257738D01*
Y131071D01*
X262599D01*
Y136129D01*
X261351D01*
X261120Y136431D01*
X260634Y137604D01*
X260646Y137618D01*
X261438D01*
Y143739D01*
X260818D01*
X260488Y144115D01*
X260489Y144122D01*
X260479D01*
Y144540D01*
X260402Y144930D01*
X260181Y145261D01*
X247121Y158321D01*
X246790Y158542D01*
X246400Y158620D01*
X246716Y158935D01*
X249786D01*
X250255Y159029D01*
X250651Y159294D01*
X257450Y166092D01*
X257912Y165901D01*
Y156951D01*
X270923D01*
Y166419D01*
X258430D01*
X258238Y166881D01*
X260415Y169057D01*
X260680Y169454D01*
X260773Y169922D01*
Y176150D01*
X260680Y176619D01*
X260415Y177015D01*
X259874Y177556D01*
X260095Y178005D01*
X260300Y177978D01*
X271600D01*
X271600Y177978D01*
X272112Y178045D01*
X272488Y177715D01*
Y131683D01*
X268940Y128135D01*
X214960D01*
X200935Y142160D01*
Y164138D01*
X201629D01*
Y164733D01*
X207368D01*
X207954Y164850D01*
X208071Y164873D01*
X208666Y165271D01*
X209589Y166193D01*
X210050Y166002D01*
Y165777D01*
X217156D01*
Y166292D01*
X217156D01*
D01*
D01*
Y166292D01*
D01*
D01*
X217156Y166468D01*
Y166490D01*
Y166557D01*
Y166578D01*
Y166646D01*
X217156Y166646D01*
D01*
D01*
D01*
X217156Y166821D01*
X217156D01*
D01*
Y166821D01*
X217156D01*
D01*
Y169027D01*
D01*
Y169027D01*
X217156Y169027D01*
Y169205D01*
X217156D01*
Y171586D01*
D01*
Y171586D01*
X217156Y171586D01*
Y171764D01*
X217156D01*
Y174145D01*
D01*
Y174145D01*
X217156Y174145D01*
Y174323D01*
X217156D01*
Y176704D01*
X210050D01*
Y176704D01*
X209618Y176704D01*
X182320Y204002D01*
Y210700D01*
X182242Y211090D01*
X182021Y211421D01*
X181159Y212282D01*
X181170Y212294D01*
X181068Y212378D01*
X180311Y213364D01*
X179785Y214635D01*
X179618Y215901D01*
X179631Y216000D01*
X179507Y216940D01*
X179145Y217815D01*
X178568Y218567D01*
X177815Y219145D01*
X177223Y219390D01*
X177321Y219880D01*
X178078D01*
X187080Y210878D01*
D02*
G37*
G36*
X249250Y180573D02*
Y178605D01*
Y176636D01*
Y174965D01*
X249200Y174924D01*
X243546D01*
X243077Y174830D01*
X242794Y174641D01*
X242388Y174858D01*
X242353Y174893D01*
Y176704D01*
X235573D01*
X235573Y176704D01*
D01*
D01*
X235573Y176704D01*
X235247Y176704D01*
X235220Y176732D01*
Y179200D01*
X235142Y179590D01*
X234921Y179921D01*
X232788Y182054D01*
X232979Y182516D01*
X249250D01*
Y180573D01*
D02*
G37*
%LPC*%
G36*
X266440Y143739D02*
X264962D01*
Y141179D01*
X266440D01*
Y143739D01*
D02*
G37*
G36*
X234579Y142694D02*
X232196D01*
Y139700D01*
X234579D01*
Y142694D01*
D02*
G37*
G36*
X268918Y143739D02*
X267440D01*
Y141179D01*
X268918D01*
Y143739D01*
D02*
G37*
G36*
X265732Y133100D02*
X263801D01*
Y131071D01*
X265732D01*
Y133100D01*
D02*
G37*
G36*
X231196Y138700D02*
X228813D01*
Y135706D01*
X231196D01*
Y138700D01*
D02*
G37*
G36*
X266440Y140179D02*
X264962D01*
Y137618D01*
X266440D01*
Y140179D01*
D02*
G37*
G36*
X268662Y136129D02*
X266732D01*
Y134100D01*
X268662D01*
Y136129D01*
D02*
G37*
G36*
X265732D02*
X263801D01*
Y134100D01*
X265732D01*
Y136129D01*
D02*
G37*
G36*
X234579Y138700D02*
X232196D01*
Y135706D01*
X234579D01*
Y138700D01*
D02*
G37*
G36*
X241587Y142694D02*
X235821D01*
Y135706D01*
X241587D01*
Y137777D01*
X242490Y138151D01*
X242932Y138209D01*
X243415Y137887D01*
X244000Y137771D01*
X244585Y137887D01*
X245081Y138219D01*
X245413Y138715D01*
X245529Y139300D01*
X245413Y139885D01*
X245081Y140381D01*
X244585Y140713D01*
X244000Y140829D01*
X243415Y140713D01*
X242919Y140381D01*
X242913Y140387D01*
X242819Y140348D01*
X242186Y140431D01*
X241587Y140679D01*
Y142694D01*
D02*
G37*
G36*
X231196D02*
X228813D01*
Y139700D01*
X231196D01*
Y142694D01*
D02*
G37*
G36*
X268662Y133100D02*
X266732D01*
Y131071D01*
X268662D01*
Y133100D01*
D02*
G37*
G36*
X268918Y140179D02*
X267440D01*
Y137618D01*
X268918D01*
Y140179D01*
D02*
G37*
G36*
X231196Y147700D02*
X228813D01*
Y144706D01*
X231196D01*
Y147700D01*
D02*
G37*
G36*
X256750Y186972D02*
X249250D01*
Y186479D01*
Y186004D01*
X256750D01*
Y186479D01*
Y186972D01*
D02*
G37*
G36*
Y188941D02*
X249250D01*
Y188447D01*
Y187972D01*
X256750D01*
Y188447D01*
Y188941D01*
D02*
G37*
G36*
X217156Y164777D02*
X210050D01*
Y164262D01*
X210050Y164262D01*
X210050D01*
X210050Y164087D01*
Y163909D01*
D01*
D01*
D01*
X210050D01*
D01*
Y161732D01*
X209609Y161497D01*
X209585Y161513D01*
X209000Y161629D01*
X208415Y161513D01*
X207919Y161181D01*
X207587Y160685D01*
X207471Y160100D01*
X207587Y159515D01*
X207919Y159019D01*
Y158681D01*
X207587Y158185D01*
X207471Y157600D01*
X207587Y157015D01*
X207919Y156519D01*
X208415Y156187D01*
X209000Y156071D01*
X209585Y156187D01*
X209977Y156449D01*
X210050Y156409D01*
Y156409D01*
X210050Y156409D01*
X216714D01*
X216906Y155947D01*
X213648Y152690D01*
X213426Y152359D01*
X213349Y151969D01*
Y151968D01*
X213332D01*
X213344Y151878D01*
X213191Y151109D01*
X213138Y151029D01*
X211938D01*
Y145971D01*
X216799D01*
Y151029D01*
X215599D01*
X215546Y151109D01*
X215447Y151606D01*
X218721Y154879D01*
X218942Y155210D01*
X219020Y155600D01*
Y162100D01*
X218942Y162490D01*
X218721Y162821D01*
X218103Y163439D01*
X217772Y163660D01*
X217382Y163738D01*
X217156D01*
Y163909D01*
D01*
X217156Y163909D01*
D01*
D01*
Y164087D01*
X217156Y164214D01*
X217156Y164262D01*
X217156D01*
D01*
Y164262D01*
X217156D01*
D01*
Y164777D01*
D02*
G37*
G36*
X225800Y175074D02*
X219795D01*
Y167100D01*
X225800D01*
Y175074D01*
D02*
G37*
G36*
X216200Y190469D02*
X214171D01*
Y188538D01*
X216200D01*
Y190469D01*
D02*
G37*
G36*
X256750Y198784D02*
X249250D01*
Y198290D01*
Y197815D01*
X256750D01*
Y198290D01*
Y198784D01*
D02*
G37*
G36*
Y200752D02*
X249250D01*
Y200258D01*
Y199784D01*
X256750D01*
Y200258D01*
Y200752D01*
D02*
G37*
G36*
X219229Y190469D02*
X217200D01*
Y188538D01*
X219229D01*
Y190469D01*
D02*
G37*
G36*
X216200Y193399D02*
X214171D01*
Y191469D01*
X216200D01*
Y193399D01*
D02*
G37*
G36*
X225800Y166100D02*
X219795D01*
Y158126D01*
X225800D01*
Y166100D01*
D02*
G37*
G36*
X222862Y148000D02*
X220932D01*
Y145971D01*
X222862D01*
Y148000D01*
D02*
G37*
G36*
X241587Y151694D02*
X235821D01*
Y144706D01*
X241587D01*
Y146777D01*
X242490Y147151D01*
X242932Y147209D01*
X243415Y146887D01*
X244000Y146771D01*
X244585Y146887D01*
X245081Y147219D01*
X245413Y147715D01*
X245529Y148300D01*
X245413Y148885D01*
X245081Y149381D01*
X244585Y149713D01*
X244000Y149829D01*
X243415Y149713D01*
X242919Y149381D01*
X242913Y149387D01*
X242819Y149348D01*
X242186Y149431D01*
X241587Y149679D01*
Y151694D01*
D02*
G37*
G36*
X234579Y147700D02*
X232196D01*
Y144706D01*
X234579D01*
Y147700D01*
D02*
G37*
G36*
X219932Y148000D02*
X218001D01*
Y145971D01*
X219932D01*
Y148000D01*
D02*
G37*
G36*
X231196Y151694D02*
X228813D01*
Y148700D01*
X231196D01*
Y151694D01*
D02*
G37*
G36*
X222862Y151029D02*
X220932D01*
Y149000D01*
X222862D01*
Y151029D01*
D02*
G37*
G36*
X265178Y153582D02*
X261222D01*
Y147461D01*
X265178D01*
Y149163D01*
X265554Y149493D01*
X265561Y149492D01*
Y149502D01*
X267742D01*
Y149490D01*
X267742Y149490D01*
Y149490D01*
X267742Y149490D01*
Y149490D01*
Y149490D01*
D01*
D01*
D01*
Y149490D01*
X267742D01*
D01*
Y149490D01*
X267742Y149490D01*
Y149490D01*
X267742Y149490D01*
Y149490D01*
D01*
X267917Y149417D01*
X267917Y149417D01*
D01*
D01*
D01*
X267919Y149419D01*
D01*
X268415Y149087D01*
X269000Y148971D01*
X269585Y149087D01*
X270081Y149419D01*
X270413Y149915D01*
X270529Y150500D01*
X270413Y151085D01*
X270081Y151581D01*
X269585Y151913D01*
X269000Y152029D01*
X268415Y151913D01*
X267919Y151581D01*
X267909Y151591D01*
Y151591D01*
X267844Y151564D01*
X267750Y151564D01*
X267742Y151566D01*
Y151541D01*
X265570D01*
X265561Y151550D01*
D01*
X265561Y151550D01*
D01*
D01*
X265561D01*
D01*
D01*
D01*
X265554Y151549D01*
X265178Y151879D01*
Y153582D01*
D02*
G37*
G36*
X234579Y151694D02*
X232196D01*
Y148700D01*
X234579D01*
Y151694D01*
D02*
G37*
G36*
X219932Y151029D02*
X218001D01*
Y149000D01*
X219932D01*
Y151029D01*
D02*
G37*
%LPD*%
D10*
X209353Y157954D02*
G03*
X210207Y157600I854J854D01*
G01*
D02*
G03*
X209353Y157246I0J-1207D01*
G01*
Y160453D02*
G03*
X210065Y160159I711J711D01*
G01*
X210350D02*
G03*
X209353Y159747I0J-1409D01*
G01*
X243647Y138946D02*
G03*
X242793Y139300I-854J-854D01*
G01*
D02*
G03*
X243647Y139654I0J1207D01*
G01*
Y147947D02*
G03*
X242793Y148300I-854J-854D01*
G01*
D02*
G03*
X243647Y148653I0J1207D01*
G01*
Y162446D02*
G03*
X242991Y162718I-656J-656D01*
G01*
X242595D02*
G03*
X243647Y163154I0J1487D01*
G01*
X242299Y170395D02*
G03*
X243647Y170954I0J1906D01*
G01*
X228046Y196678D02*
G03*
X227193Y197031I-854J-854D01*
G01*
D02*
G03*
X228046Y197385I0J1207D01*
G01*
X228753D02*
G03*
X229607Y197031I854J854D01*
G01*
D02*
G03*
X228753Y196678I0J-1207D01*
G01*
X268647Y150146D02*
G03*
X267742Y150521I-905J-905D01*
G01*
X267844D02*
G03*
X268647Y150854I0J1135D01*
G01*
X263347Y279546D02*
G03*
X262493Y279900I-854J-854D01*
G01*
D02*
G03*
X263347Y280254I0J1207D01*
G01*
X117800Y276000D02*
G03*
X119073Y272927I4346J0D01*
G01*
X118600Y276000D02*
G03*
X120439Y271562I6277J0D01*
G01*
X119073Y272927D02*
G03*
X116000Y274200I-3073J-3073D01*
G01*
X120439Y271562D02*
G03*
X116000Y273400I-4439J-4439D01*
G01*
X117273Y247273D02*
G03*
X120346Y246000I3073J3073D01*
G01*
X117839Y247838D02*
G03*
X122277Y246000I4439J4439D01*
G01*
X120346D02*
G03*
X117273Y244727I0J-4346D01*
G01*
X122277Y246000D02*
G03*
X117839Y244162I0J-6277D01*
G01*
X177800Y276000D02*
G03*
X179073Y272927I4346J0D01*
G01*
X178600Y276000D02*
G03*
X180438Y271562I6277J0D01*
G01*
X179073Y272927D02*
G03*
X176000Y274200I-3073J-3073D01*
G01*
X180438Y271562D02*
G03*
X176000Y273400I-4439J-4439D01*
G01*
X177800Y266000D02*
G03*
X179073Y262927I4346J0D01*
G01*
X178600Y266000D02*
G03*
X180438Y261561I6277J0D01*
G01*
X179073Y262927D02*
G03*
X176000Y264200I-3073J-3073D01*
G01*
X180438Y261561D02*
G03*
X176000Y263400I-4439J-4439D01*
G01*
X174200Y196000D02*
G03*
X172927Y199073I-4346J0D01*
G01*
X173400Y196000D02*
G03*
X171562Y200438I-6277J0D01*
G01*
X172927Y199073D02*
G03*
X176000Y197800I3073J3073D01*
G01*
X171562Y200438D02*
G03*
X176000Y198600I4439J4439D01*
G01*
X178600Y206000D02*
G03*
X179802Y203098I4104J0D01*
G01*
X179244Y203657D02*
G03*
X176000Y205000I-3243J-3243D01*
G01*
X180609Y202291D02*
G03*
X176000Y204200I-4609J-4609D01*
G01*
X181975Y200925D02*
G03*
X176000Y203400I-5975J-5975D01*
G01*
X177800Y216000D02*
G03*
X179073Y212927I4346J0D01*
G01*
X178600Y216000D02*
G03*
X180438Y211561I6277J0D01*
G01*
X179073Y212927D02*
G03*
X176000Y214200I-3073J-3073D01*
G01*
X180438Y211561D02*
G03*
X176000Y213400I-4439J-4439D01*
G01*
X177800Y226000D02*
G03*
X178723Y223771I3152J0D01*
G01*
X178600Y226000D02*
G03*
X180089Y222406I5083J0D01*
G01*
X178551Y223943D02*
G03*
X176000Y225000I-2551J-2551D01*
G01*
X179917Y222578D02*
G03*
X176000Y224200I-3917J-3917D01*
G01*
X181282Y221212D02*
G03*
X176000Y223400I-5283J-5283D01*
G01*
X177800Y236000D02*
G03*
X179073Y232927I4346J0D01*
G01*
X178600Y236000D02*
G03*
X180438Y231561I6277J0D01*
G01*
X179073Y232927D02*
G03*
X176000Y234200I-3073J-3073D01*
G01*
X180438Y231561D02*
G03*
X176000Y233400I-4439J-4439D01*
G01*
X213375Y149628D02*
G03*
X214369Y151968I-2260J2341D01*
G01*
D02*
G03*
X215362Y149628I3253J0D01*
G01*
X253415Y286456D02*
G03*
X252260Y283668I2788J-2788D01*
G01*
X253980Y285890D02*
G03*
X252260Y281737I4153J-4153D01*
G01*
Y285158D02*
G03*
X251957Y285890I-1035J0D01*
G01*
X260043Y285890D02*
G03*
X259740Y285158I732J-732D01*
G01*
Y283668D02*
G03*
X258586Y286456I-3942J0D01*
G01*
X259740Y281737D02*
G03*
X258020Y285890I-5874J0D01*
G01*
X259157Y134710D02*
G03*
X259460Y135442I-732J732D01*
G01*
Y136932D02*
G03*
X260614Y134144I3942J0D01*
G01*
X259460Y138863D02*
G03*
X261180Y134710I5874J0D01*
G01*
X224810Y198043D02*
G03*
X227253Y197031I2442J2442D01*
G01*
D02*
G03*
X224810Y196020I0J-3454D01*
G01*
X224810Y191980D02*
G03*
X226188Y191409I1378J1378D01*
G01*
X226386D02*
G03*
X224244Y190523I0J-3028D01*
G01*
X228317Y191409D02*
G03*
X224810Y189957I0J-4959D01*
G01*
X224712D02*
G03*
X223700Y187514I2442J-2442D01*
G01*
D02*
G03*
X222688Y189957I-3454J0D01*
G01*
X215590Y196020D02*
G03*
X213147Y197031I-2442J-2442D01*
G01*
D02*
G03*
X215590Y198043I0J3454D01*
G01*
X218229Y197031D02*
G03*
X219310Y194421I3692J0D01*
G01*
X219073Y194659D02*
G03*
X216798Y195601I-2274J-2274D01*
G01*
X218129Y223031D02*
G03*
X219210Y220421I3692J0D01*
G01*
X218973Y220659D02*
G03*
X216698Y221601I-2274J-2274D01*
G01*
X224710Y224043D02*
G03*
X227152Y223031I2442J2442D01*
G01*
D02*
G03*
X224710Y222020I0J-3454D01*
G01*
X222071Y223031D02*
G03*
X220990Y225642I-3692J0D01*
G01*
X221227Y225404D02*
G03*
X223502Y224462I2274J2274D01*
G01*
X239470Y148966D02*
G03*
X241078Y148300I1608J1608D01*
G01*
X240036Y149532D02*
G03*
X243010Y148300I2974J2974D01*
G01*
X241561D02*
G03*
X239470Y147434I0J-2957D01*
G01*
X243492Y148300D02*
G03*
X240036Y146868I0J-4888D01*
G01*
X239470Y139966D02*
G03*
X241078Y139300I1608J1608D01*
G01*
X240036Y140532D02*
G03*
X243010Y139300I2974J2974D01*
G01*
X241561D02*
G03*
X239470Y138434I0J-2957D01*
G01*
X243492Y139300D02*
G03*
X240036Y137868I0J-4888D01*
G01*
X260151Y138905D02*
G03*
X259460Y137235I1670J-1670D01*
G01*
D02*
G03*
X258768Y138905I-2361J0D01*
G01*
Y142453D02*
G03*
X259460Y144122I-1670J1670D01*
G01*
D02*
G03*
X260151Y142453I2361J0D01*
G01*
X263892Y151213D02*
G03*
X265561Y150521I1670J1670D01*
G01*
D02*
G03*
X263892Y149830I0J-2361D01*
G01*
X260432Y280613D02*
G03*
X262153Y279900I1721J1721D01*
G01*
X262050D02*
G03*
X260432Y279230I0J-2288D01*
G01*
X259049Y281696D02*
G03*
X259740Y283365I-1670J1670D01*
G01*
D02*
G03*
X260432Y281696I2361J0D01*
G01*
X251568D02*
G03*
X252260Y283365I-1670J1670D01*
G01*
D02*
G03*
X252951Y281696I2361J0D01*
G01*
X259740Y279921D02*
X259761Y279900D01*
X263700D01*
X268979Y150521D02*
X269000Y150500D01*
X263200Y150521D02*
X268979D01*
X170100Y201900D02*
Y218200D01*
X172800Y220900D01*
X178500D01*
X188100Y211300D01*
X231265Y182135D02*
X234200Y179200D01*
Y158500D02*
Y179200D01*
Y158500D02*
X235100Y157600D01*
X170100Y201900D02*
X176000Y196000D01*
X188100Y207060D02*
Y211300D01*
Y207060D02*
X213025Y182135D01*
X231265D01*
X235100Y157600D02*
X238800D01*
X213605Y183535D02*
X253000D01*
X189500Y207640D02*
X213605Y183535D01*
X189500Y207640D02*
Y212994D01*
X176494Y226000D02*
X189500Y212994D01*
X176000Y226000D02*
X176494D01*
X214185Y184935D02*
X221200D01*
X190900Y208220D02*
X214185Y184935D01*
X223700Y187435D02*
Y190969D01*
X221200Y184935D02*
X223700Y187435D01*
X190900Y208220D02*
Y218400D01*
X178100Y231200D02*
X190900Y218400D01*
X173900Y231200D02*
X178100D01*
X159100Y246000D02*
X173900Y231200D01*
X116000Y246000D02*
X159100D01*
X204068Y197031D02*
X216700D01*
X192300Y208800D02*
X204068Y197031D01*
X192300Y208800D02*
Y219700D01*
X176000Y236000D02*
X192300Y219700D01*
X218000Y155600D02*
Y162100D01*
X214369Y151969D02*
X218000Y155600D01*
X217382Y162718D02*
X218000Y162100D01*
X213603Y162718D02*
X217382D01*
X252260Y286291D02*
X252969Y287000D01*
X252260Y279921D02*
Y286291D01*
X259032Y287000D02*
X259740Y286291D01*
Y279921D02*
Y286291D01*
X209366Y175513D02*
X213603D01*
X181300Y203580D02*
X209366Y175513D01*
X181300Y203580D02*
Y210700D01*
X176000Y216000D02*
X181300Y210700D01*
X247600Y203221D02*
X253000D01*
X240420Y210400D02*
X247600Y203221D01*
X206477Y210400D02*
X240420D01*
X180380Y236498D02*
X206477Y210400D01*
X180380Y236498D02*
Y257277D01*
X176557Y261100D02*
X180380Y257277D01*
X130900Y261100D02*
X176557D01*
X116000Y276000D02*
X130900Y261100D01*
X207057Y211800D02*
X241000D01*
X181780Y237077D02*
X207057Y211800D01*
X247611Y205189D02*
X253000D01*
X241000Y211800D02*
X247611Y205189D01*
X181780Y237077D02*
Y260220D01*
X176000Y266000D02*
X181780Y260220D01*
X220769Y225862D02*
X223600Y223031D01*
X197238Y225862D02*
X220769D01*
X184780Y238320D02*
X197238Y225862D01*
X184780Y238320D02*
Y267220D01*
X176000Y276000D02*
X184780Y267220D01*
X228400Y197031D02*
X232968D01*
X223700D02*
X228400D01*
X219832Y219799D02*
X241201D01*
X216600Y223031D02*
X219832Y219799D01*
X223600Y223031D02*
X241968D01*
X248000Y217000D01*
X232968Y197031D02*
X234653Y195346D01*
X223700Y190969D02*
X224141Y191409D01*
X259000Y180400D02*
Y180600D01*
X259467D02*
X260300D01*
X258500Y181567D02*
X259467Y180600D01*
X253000Y181567D02*
X258500D01*
X257958Y207157D02*
X259900Y209100D01*
X261000D01*
X253000Y207157D02*
X257958D01*
X257805Y211094D02*
X259774Y209126D01*
X260974D01*
X253000D02*
X259774D01*
X260974D02*
X261000Y209100D01*
X253000Y211094D02*
X257805D01*
X253000Y175661D02*
X257139D01*
X257200Y175600D01*
X253000Y179598D02*
X258198D01*
X259000Y180400D01*
X253000Y177630D02*
X258070D01*
X258500Y177200D01*
X248900Y171500D02*
X249100Y171700D01*
X252976D01*
X253000Y171724D01*
X238800Y170395D02*
X243795D01*
X244000Y170600D01*
X252993Y173700D02*
X253000Y173693D01*
X249200Y173700D02*
X252993D01*
X238800Y162718D02*
X243918D01*
X244000Y162800D01*
X238804Y148300D02*
X244000D01*
X238704Y148200D02*
X238804Y148300D01*
Y139300D02*
X244000D01*
X238704Y139200D02*
X238804Y139300D01*
X259460Y134309D02*
Y140679D01*
Y134309D02*
X260169Y133600D01*
X224141Y191409D02*
X253000D01*
X209946Y172954D02*
X213603D01*
X176900Y206000D02*
X209946Y172954D01*
X248000Y217000D02*
X253000D01*
X241201Y219799D02*
X247937Y213063D01*
X253000D01*
X234653Y195346D02*
X253000D01*
X176000Y206000D02*
X176900D01*
X209059Y160159D02*
X213603D01*
X209000Y160100D02*
X209059Y160159D01*
X209000Y157600D02*
X213603D01*
X214369Y148500D02*
Y151969D01*
X219932Y193799D02*
X233401D01*
X216700Y197031D02*
X219932Y193799D01*
X233401D02*
X233822Y193378D01*
X253000D01*
X238800Y157600D02*
X246400D01*
X259460Y144540D01*
Y140679D02*
Y144540D01*
D11*
X228117Y216617D02*
G03*
X227434Y216900I-683J-683D01*
G01*
D02*
G03*
X228117Y217183I0J966D01*
G01*
X114501Y266043D02*
G03*
X113540Y268460I-3283J95D01*
G01*
X113501Y266072D02*
G03*
X111900Y270100I-5471J158D01*
G01*
X113540Y268460D02*
G03*
X115957Y267499I2322J2322D01*
G01*
X111900Y270100D02*
G03*
X115928Y268499I3870J3870D01*
G01*
X215171Y216968D02*
G03*
X214160Y219408I-3450J0D01*
G01*
X214398Y219171D02*
G03*
X216502Y218299I2104J2104D01*
G01*
X217639Y217909D02*
G03*
X219911Y216968I2272J2272D01*
G01*
D02*
G03*
X217639Y216027I0J-3213D01*
G01*
X224639Y217909D02*
G03*
X227076Y216900I2437J2437D01*
G01*
X226746D02*
G03*
X224639Y216027I0J-2979D01*
G01*
X222561D02*
G03*
X220289Y216968I-2272J-2272D01*
G01*
D02*
G03*
X222561Y217909I0J3213D01*
G01*
X196616Y224362D02*
X209206D01*
X183280Y237699D02*
X196616Y224362D01*
X209206D02*
X216600Y216968D01*
X183280Y237699D02*
Y265420D01*
X177800Y270900D02*
X183280Y265420D01*
X171100Y270900D02*
X177800D01*
X161900Y280100D02*
X171100Y270900D01*
X114302Y280100D02*
X161900D01*
X111900Y277698D02*
X114302Y280100D01*
X111900Y270100D02*
Y277698D01*
Y270100D02*
X116000Y266000D01*
X223600Y216968D02*
X223669Y216900D01*
X228400D01*
X216600Y216968D02*
X223600D01*
D12*
X238800Y157600D02*
D03*
Y160159D02*
D03*
Y162718D02*
D03*
Y165277D02*
D03*
Y167836D02*
D03*
Y170395D02*
D03*
Y172954D02*
D03*
Y175513D02*
D03*
X213603D02*
D03*
Y172954D02*
D03*
Y170395D02*
D03*
Y167836D02*
D03*
Y165277D02*
D03*
Y162718D02*
D03*
Y160159D02*
D03*
Y157600D02*
D03*
D13*
X226300Y166600D02*
D03*
D14*
X256000Y270079D02*
D03*
X252260Y279921D02*
D03*
X259740D02*
D03*
X263200Y150521D02*
D03*
X266940Y140679D02*
D03*
X259460D02*
D03*
D15*
X231696Y139200D02*
D03*
X238704D02*
D03*
X231696Y148200D02*
D03*
X238704D02*
D03*
D16*
X223600Y223031D02*
D03*
Y216968D02*
D03*
X216600Y223031D02*
D03*
Y216968D02*
D03*
X216700Y197031D02*
D03*
Y190969D02*
D03*
X223700Y190969D02*
D03*
Y197031D02*
D03*
X199100Y172632D02*
D03*
Y166569D02*
D03*
D17*
X260169Y133600D02*
D03*
X266231D02*
D03*
X259032Y287000D02*
D03*
X252969D02*
D03*
X220431Y148500D02*
D03*
X214369D02*
D03*
D18*
X235764Y248000D02*
D03*
X256236D02*
D03*
D19*
X264417Y161685D02*
D03*
Y227039D02*
D03*
D20*
X253000Y217000D02*
D03*
Y215032D02*
D03*
Y213063D02*
D03*
Y211094D02*
D03*
Y209126D02*
D03*
Y207157D02*
D03*
Y205189D02*
D03*
Y203221D02*
D03*
Y201252D02*
D03*
Y199284D02*
D03*
Y197315D02*
D03*
Y195346D02*
D03*
Y193378D02*
D03*
Y191409D02*
D03*
Y189441D02*
D03*
Y187472D02*
D03*
Y185504D02*
D03*
Y183535D02*
D03*
Y181567D02*
D03*
Y179598D02*
D03*
Y177630D02*
D03*
Y175661D02*
D03*
Y173693D02*
D03*
Y171724D02*
D03*
D21*
X206000Y248800D02*
X206200Y248600D01*
X206000Y248800D02*
Y254000D01*
X210943D01*
X205800Y259300D02*
X206000Y259100D01*
Y254000D02*
Y259100D01*
X199800Y254300D02*
X200100Y254000D01*
X206000D01*
D22*
X234121Y279921D02*
X252260D01*
X215843Y261643D02*
X234121Y279921D01*
X215843Y254000D02*
Y261643D01*
X261000Y209100D02*
X274323D01*
Y183323D02*
Y209100D01*
X256000Y248236D02*
X256236Y248000D01*
X256000Y248236D02*
Y270079D01*
X274323Y209100D02*
Y242677D01*
X256236Y248000D02*
X269000D01*
X274323Y242677D01*
X224000Y248000D02*
X235764D01*
D23*
X260300Y180600D02*
X271600D01*
X274323Y183323D01*
D24*
X207368Y166569D02*
X208500Y167700D01*
X206368Y172632D02*
X208000Y171000D01*
X199100Y172632D02*
X206368D01*
X199100Y166569D02*
X207368D01*
X274323Y130923D02*
Y183323D01*
X269700Y126300D02*
X274323Y130923D01*
X214200Y126300D02*
X269700D01*
X199100Y141400D02*
Y166569D01*
Y141400D02*
X214200Y126300D01*
D25*
X208500Y167700D02*
X208636Y167836D01*
X213603D01*
X208605Y170395D02*
X213603D01*
X208000Y171000D02*
X208605Y170395D01*
X238800Y172954D02*
X242800D01*
X243546Y173700D01*
X249200D01*
X238800Y167836D02*
X245236D01*
X248900Y171500D01*
X238800Y160159D02*
X249786D01*
X258500Y177200D02*
X259550Y176150D01*
X257139Y175661D02*
X257750Y175050D01*
X238800Y165277D02*
X252359D01*
X257750Y170668D01*
Y175050D01*
X249786Y160159D02*
X259550Y169922D01*
Y176150D01*
D26*
X226347Y166387D02*
D03*
D27*
X236800Y296000D02*
D03*
D28*
X176000Y256000D02*
D03*
Y246000D02*
D03*
Y236000D02*
D03*
Y226000D02*
D03*
Y216000D02*
D03*
Y206000D02*
D03*
Y196000D02*
D03*
Y186000D02*
D03*
Y176000D02*
D03*
Y166000D02*
D03*
Y156000D02*
D03*
Y146000D02*
D03*
X116000Y136000D02*
D03*
X176000Y266000D02*
D03*
Y276000D02*
D03*
X116000Y146000D02*
D03*
Y156000D02*
D03*
Y166000D02*
D03*
Y176000D02*
D03*
Y186000D02*
D03*
Y196000D02*
D03*
Y206000D02*
D03*
Y216000D02*
D03*
Y226000D02*
D03*
Y256000D02*
D03*
Y236000D02*
D03*
Y246000D02*
D03*
Y266000D02*
D03*
Y276000D02*
D03*
D29*
X176000Y136000D02*
D03*
D30*
X215843Y254000D02*
D03*
X206000D02*
D03*
D31*
X116000Y120000D02*
D03*
X190000Y150000D02*
D03*
Y180000D02*
D03*
X198000Y212000D02*
D03*
X260000Y186000D02*
D03*
Y190000D02*
D03*
Y194000D02*
D03*
Y198000D02*
D03*
X266000Y186000D02*
D03*
Y190000D02*
D03*
Y194000D02*
D03*
Y198000D02*
D03*
Y202000D02*
D03*
X260000D02*
D03*
X210000Y204000D02*
D03*
X222000D02*
D03*
X238000Y202000D02*
D03*
X244000Y200000D02*
D03*
X238000Y188000D02*
D03*
X230000D02*
D03*
X246000D02*
D03*
X244000Y180000D02*
D03*
X238000Y216000D02*
D03*
X264000Y218000D02*
D03*
X270000Y264000D02*
D03*
X238000D02*
D03*
X240000Y232000D02*
D03*
X218000Y236000D02*
D03*
X200000D02*
D03*
X194000Y250000D02*
D03*
Y268000D02*
D03*
X208000Y274000D02*
D03*
X218000Y287900D02*
D03*
X192000Y288000D02*
D03*
X146000D02*
D03*
X242000Y118000D02*
D03*
X144000Y138000D02*
D03*
Y166000D02*
D03*
Y194000D02*
D03*
Y220000D02*
D03*
Y254000D02*
D03*
X160000Y270000D02*
D03*
X136000D02*
D03*
X263700Y279900D02*
D03*
X269000Y150500D02*
D03*
X228400Y216900D02*
D03*
Y197031D02*
D03*
X244000Y170600D02*
D03*
Y162800D02*
D03*
Y148300D02*
D03*
Y139300D02*
D03*
X209000Y160100D02*
D03*
Y157600D02*
D03*
X188000Y202000D02*
D03*
X210000Y180000D02*
D03*
X222000Y172000D02*
D03*
X226000D02*
D03*
X230000D02*
D03*
X222000Y166000D02*
D03*
X225800Y166100D02*
D03*
X230000Y166000D02*
D03*
X222000Y160000D02*
D03*
X226000D02*
D03*
X230000D02*
D03*
X206000Y148000D02*
D03*
X218000Y134000D02*
D03*
X250000Y132000D02*
D03*
X211400Y193500D02*
D03*
X265900Y171500D02*
D03*
M02*
