M48
;Layer_Color=9474304
;FILE_FORMAT=2:5
INCH,LZ
;TYPE=PLATED
T1F00S00C0.01000
T2F00S00C0.03000
T3F00S00C0.03543
T4F00S00C0.04000
%
T01
X0116Y012
X0144Y0138
X019Y015
X0206Y0148
X0218Y0134
X0244Y01393
Y01483
X025Y0132
X0242Y0118
X0269Y01505
X02659Y01715
X0266Y0186
Y019
Y0194
Y0198
Y0202
X026
Y0198
Y0194
Y019
Y0186
X0246Y0188
X0238
X023
X02284Y0197031
X0222Y0204
X021
X02114Y01935
X021Y018
X019
X0188Y0202
X0198Y0212
X02Y0236
X0218
X024Y0232
X0238Y0216
X02284Y02169
X0238Y0202
X0244Y02
Y018
Y01706
Y01628
X023Y016
X0226
X0222
Y0166
X02258Y01661
X023Y0166
Y0172
X0226
X0222
X0209Y01601
Y01576
X0194Y025
Y0268
X0208Y0274
X0218Y02879
X0192Y0288
X016Y027
X0238Y0264
X027
X02637Y02799
X0264Y0218
X0144Y022
Y0194
Y0166
Y0254
X0136Y027
X0146Y0288
T02
X0116Y0136
Y0146
Y0156
X0176
Y0146
Y0136
Y0166
Y0176
Y0186
Y0196
Y0206
Y0216
Y0226
Y0236
Y0246
Y0256
Y0266
Y0276
X0116
Y0266
Y0256
Y0246
Y0236
Y0226
Y0216
Y0206
Y0196
Y0186
Y0176
Y0166
T03
X02368Y0296
T04
X0206Y0254
X0215843
M30
