%FSLAX25Y25*%
%MOIN*%
G70*
G01*
G75*
G04 Layer_Color=8388736*
%ADD10C,0.00800*%
%ADD11C,0.01000*%
%ADD12R,0.05906X0.01181*%
%ADD13R,0.11811X0.15748*%
%ADD14R,0.02756X0.04921*%
%ADD15R,0.04567X0.05787*%
%ADD16R,0.03858X0.03661*%
%ADD17R,0.03661X0.03858*%
%ADD18R,0.11811X0.05906*%
%ADD19R,0.11811X0.08268*%
%ADD20R,0.06299X0.00787*%
%ADD21C,0.01600*%
%ADD22C,0.06000*%
%ADD23C,0.04000*%
%ADD24C,0.02400*%
%ADD25C,0.01200*%
%ADD26R,0.13106X0.17374*%
%ADD27C,0.05906*%
%ADD28C,0.06000*%
%ADD29R,0.06000X0.06000*%
%ADD30C,0.07000*%
%ADD31C,0.01800*%
%ADD32C,0.00787*%
%ADD33C,0.00600*%
%ADD34C,0.00500*%
%ADD35R,0.06706X0.01981*%
%ADD36R,0.12611X0.16548*%
%ADD37R,0.03556X0.05721*%
%ADD38R,0.05367X0.06587*%
%ADD39R,0.04658X0.04461*%
%ADD40R,0.04461X0.04658*%
%ADD41R,0.12611X0.06706*%
%ADD42R,0.12611X0.09068*%
%ADD43R,0.07099X0.01587*%
%ADD44C,0.06706*%
%ADD45C,0.06800*%
%ADD46R,0.06800X0.06800*%
%ADD47C,0.07800*%
D35*
X238800Y157600D02*
D03*
Y160159D02*
D03*
Y162718D02*
D03*
Y165277D02*
D03*
Y167836D02*
D03*
Y170395D02*
D03*
Y172954D02*
D03*
Y175513D02*
D03*
X213603D02*
D03*
Y172954D02*
D03*
Y170395D02*
D03*
Y167836D02*
D03*
Y165277D02*
D03*
Y162718D02*
D03*
Y160159D02*
D03*
Y157600D02*
D03*
D36*
X226300Y166600D02*
D03*
D37*
X256000Y270079D02*
D03*
X252260Y279921D02*
D03*
X259740D02*
D03*
X263200Y150521D02*
D03*
X266940Y140679D02*
D03*
X259460D02*
D03*
D38*
X231696Y139200D02*
D03*
X238704D02*
D03*
X231696Y148200D02*
D03*
X238704D02*
D03*
D39*
X223600Y223031D02*
D03*
Y216968D02*
D03*
X216600Y223031D02*
D03*
Y216968D02*
D03*
X216700Y197031D02*
D03*
Y190969D02*
D03*
X223700Y190969D02*
D03*
Y197031D02*
D03*
X199100Y172632D02*
D03*
Y166569D02*
D03*
D40*
X260169Y133600D02*
D03*
X266231D02*
D03*
X259032Y287000D02*
D03*
X252969D02*
D03*
X220431Y148500D02*
D03*
X214369D02*
D03*
D41*
X235764Y248000D02*
D03*
X256236D02*
D03*
D42*
X264417Y161685D02*
D03*
Y227039D02*
D03*
D43*
X253000Y217000D02*
D03*
Y215032D02*
D03*
Y213063D02*
D03*
Y211094D02*
D03*
Y209126D02*
D03*
Y207157D02*
D03*
Y205189D02*
D03*
Y203221D02*
D03*
Y201252D02*
D03*
Y199284D02*
D03*
Y197315D02*
D03*
Y195346D02*
D03*
Y193378D02*
D03*
Y191409D02*
D03*
Y189441D02*
D03*
Y187472D02*
D03*
Y185504D02*
D03*
Y183535D02*
D03*
Y181567D02*
D03*
Y179598D02*
D03*
Y177630D02*
D03*
Y175661D02*
D03*
Y173693D02*
D03*
Y171724D02*
D03*
D44*
X236800Y296000D02*
D03*
D45*
X176000Y256000D02*
D03*
Y246000D02*
D03*
Y236000D02*
D03*
Y226000D02*
D03*
Y216000D02*
D03*
Y206000D02*
D03*
Y196000D02*
D03*
Y186000D02*
D03*
Y176000D02*
D03*
Y166000D02*
D03*
Y156000D02*
D03*
Y146000D02*
D03*
X116000Y136000D02*
D03*
X176000Y266000D02*
D03*
Y276000D02*
D03*
X116000Y146000D02*
D03*
Y156000D02*
D03*
Y166000D02*
D03*
Y176000D02*
D03*
Y186000D02*
D03*
Y196000D02*
D03*
Y206000D02*
D03*
Y216000D02*
D03*
Y226000D02*
D03*
Y256000D02*
D03*
Y236000D02*
D03*
Y246000D02*
D03*
Y266000D02*
D03*
Y276000D02*
D03*
D46*
X176000Y136000D02*
D03*
D47*
X215843Y254000D02*
D03*
X206000D02*
D03*
M02*
